<?xml version="1.0" encoding="UTF-8"?>
<svg width="570" height="400" version="1.1" viewBox="0 0 150.81 105.83" xmlns="http://www.w3.org/2000/svg"><defs><style>.cls-1{fill:#a54544;}.cls-2{fill:#fc4f4f;}.cls-3{fill:#bebcbd;}.cls-4{fill:#e31c41;}.cls-5{fill:#59595b;}</style></defs><g transform="translate(518.53 210.76)"><rect x="-518.53" y="-210.76" width="150.81" height="105.83" fill="#ffffff" fill-opacity=".99842" fill-rule="evenodd" stroke-width=".066416"/></g><g transform="translate(518.53 210.76)"><g transform="matrix(.82682 0 0 .82682 -484.47 -199.19)" fill="#5873b4"><rect x="23" y="84" width="9" height="6"/><rect x="23" y="74" width="9" height="6"/><rect x="23" y="64" width="9" height="6"/><rect x="23" y="54" width="9" height="6"/><rect x="10" y="64" width="9" height="6"/><rect x="10" y="54" width="9" height="6"/><rect x="10" y="74" width="9" height="6"/><rect x="36" y="54" width="9" height="6"/><rect x="49" y="84" width="9" height="6"/><rect x="36" y="84" width="9" height="6"/><rect x="49" y="74" width="9" height="6"/><rect x="49" y="64" width="9" height="6"/><rect x="36" y="74" width="9" height="6"/><rect x="36" y="64" width="9" height="6"/><path d="m10 87a3 3 0 0 0 3 3h6v-6h-9z"/><rect x="62" y="64" width="9" height="6"/><rect x="49" y="54" width="9" height="6"/><rect x="62" y="54" width="9" height="6"/><path d="m10 50h61v-7a3 3 0 0 0-3-3h-55a3 3 0 0 0-3 3z"/><path d="m62 90h6a3 3 0 0 0 3-3v-3h-9z"/><path d="m90 51.9c-3.65 2-9.32 3.22-15 3.76v11c10.51-1 15-3.87 15-4.93z"/><rect x="62" y="74" width="9" height="6"/><ellipse cx="67.5" cy="15" rx="22.5" ry="5"/><path d="m90 36c-3.7 2-9.56 3.23-15.81 3.72a7.07 7.07 0 0 1 0.81 3.28v8.64c10.51-1 15-3.93 15-5z"/><path d="m90 30.75v-10.69c-5 2.68-14 3.94-22.5 3.94s-17.5-1.26-22.5-3.94v10.83c0 1.48 7.88 5.11 22.5 5.11s22.5-3.63 22.5-5.11z"/></g></g><g transform="translate(518.53 210.76)"><path d="m-518.53-198.86h40.719c1.9858 0 3.5844 1.9126 3.5844 4.2884v4.6525c0 2.3758-1.5986 4.2884-3.5844 4.2884h-40.719z" fill="#5873b4" stroke-width=".19542"/><text x="-514.19659" y="-189.65004" fill="#979797" font-family="sans-serif" font-size="7.0556px" stroke-width=".26458" style="line-height:1.25" xml:space="preserve"><tspan x="-514.19659" y="-189.65004" fill="#ffffff" font-size="7.0556px" stroke-width=".26458">DATASETS</tspan></text></g><style type="text/css">.st0{fill:#00a3e0;}</style></svg>
